<svg width="34" height="34" viewBox="0 0 34 34" fill="none" xmlns="http://www.w3.org/2000/svg">
<g id="&#208;&#146;&#208;&#190;&#208;&#191;&#209;&#128;&#208;&#190;&#209;&#129;&#209;&#139;">
<circle id="Ellipse 9" cx="17" cy="17" r="17" fill="#345F99"/>
<path id="Vector" d="M16.2931 19.6042V19.5354C16.3006 18.805 16.3748 18.2237 16.5158 17.7916C16.6568 17.3595 16.8571 17.0096 17.1169 16.7419C17.3766 16.4742 17.6883 16.2275 18.052 16.0019C18.2709 15.8642 18.4675 15.7017 18.6419 15.5144C18.8163 15.3231 18.9536 15.1032 19.0538 14.8547C19.1577 14.6061 19.2097 14.3308 19.2097 14.0287C19.2097 13.6539 19.1243 13.3289 18.9536 13.0535C18.7829 12.7782 18.5547 12.566 18.269 12.4168C17.9833 12.2677 17.666 12.1931 17.3173 12.1931C17.013 12.1931 16.7199 12.2581 16.4379 12.3881C16.1558 12.5182 15.9202 12.7228 15.731 13.0019C15.5417 13.2811 15.4323 13.6463 15.4026 14.0975H14C14.0297 13.4474 14.193 12.891 14.4898 12.4283C14.7904 11.9656 15.1855 11.6119 15.6753 11.3671C16.1688 11.1224 16.7161 11 17.3173 11C17.9703 11 18.5381 11.1338 19.0204 11.4015C19.5065 11.6692 19.8813 12.0363 20.1447 12.5029C20.4119 12.9694 20.5455 13.501 20.5455 14.0975C20.5455 14.5182 20.4824 14.8987 20.3562 15.239C20.2338 15.5793 20.0557 15.8834 19.8219 16.1511C19.5919 16.4187 19.3135 16.6558 18.987 16.8623C18.6605 17.0727 18.3989 17.2944 18.2022 17.5277C18.0056 17.7572 17.8627 18.0306 17.7737 18.348C17.6846 18.6654 17.6364 19.0612 17.6289 19.5354V19.6042H16.2931ZM17.0056 23C16.731 23 16.4954 22.8987 16.2987 22.696C16.102 22.4933 16.0037 22.2505 16.0037 21.9675C16.0037 21.6845 16.102 21.4417 16.2987 21.239C16.4954 21.0363 16.731 20.935 17.0056 20.935C17.2802 20.935 17.5158 21.0363 17.7124 21.239C17.9091 21.4417 18.0074 21.6845 18.0074 21.9675C18.0074 22.1549 17.961 22.3269 17.8683 22.4837C17.7792 22.6405 17.6586 22.7668 17.5065 22.8623C17.3581 22.9541 17.1911 23 17.0056 23Z" fill="white"/>
</g>
</svg>
