<svg width="32" height="32" viewBox="0 0 32 32" fill="none" xmlns="http://www.w3.org/2000/svg">
<g id="Union">
<path fill-rule="evenodd" clip-rule="evenodd" d="M21.2062 16.3498C20.1709 17.3963 18.7668 17.9842 17.3027 17.9842H12.9298V20.2997H17.9419V21.9875H12.9298V24.9412H11.2602V21.9875H9.17603V20.2997H11.2602V17.9842H9.17603V16.2964H11.2602V8.51136H9.17603V6.82355H17.3027C18.7668 6.82355 20.1709 7.41147 21.2062 8.45799C22.2415 9.50451 22.8231 10.9239 22.8231 12.4039C22.8231 13.8839 22.2415 15.3033 21.2062 16.3498ZM17.3027 8.51136H12.9298V16.2964H17.3027C17.8084 16.2964 18.3091 16.1957 18.7763 16.0001C19.2435 15.8045 19.668 15.5178 20.0256 15.1563C20.3831 14.7949 20.6668 14.3658 20.8603 13.8935C21.0538 13.4212 21.1534 12.9151 21.1534 12.4039C21.1534 11.8927 21.0538 11.3865 20.8603 10.9143C20.6668 10.442 20.3831 10.0129 20.0256 9.65146C19.668 9.29 19.2435 9.00328 18.7763 8.80766C18.3091 8.61205 17.8084 8.51136 17.3027 8.51136Z" fill="url(#paint0_linear_318_472)"/>
<path fill-rule="evenodd" clip-rule="evenodd" d="M31.9995 16C31.9995 24.8366 24.8361 32 15.9995 32C7.16296 32 -0.000488281 24.8366 -0.000488281 16C-0.000488281 7.16344 7.16296 0 15.9995 0C24.8361 0 31.9995 7.16344 31.9995 16ZM29.9995 16C29.9995 23.732 23.7315 30 15.9995 30C8.26753 30 1.99951 23.732 1.99951 16C1.99951 8.26801 8.26753 2 15.9995 2C23.7315 2 29.9995 8.26801 29.9995 16Z" fill="url(#paint1_linear_318_472)"/>
</g>
<defs>
<linearGradient id="paint0_linear_318_472" x1="15.6093" y1="5" x2="38.4659" y2="33.8827" gradientUnits="userSpaceOnUse">
<stop stop-color="#2A5391"/>
<stop offset="1" stop-color="#53BD2C"/>
</linearGradient>
<linearGradient id="paint1_linear_318_472" x1="15.6093" y1="5" x2="38.4659" y2="33.8827" gradientUnits="userSpaceOnUse">
<stop stop-color="#2A5391"/>
<stop offset="1" stop-color="#53BD2C"/>
</linearGradient>
</defs>
</svg>
