<svg width="36" height="37" viewBox="0 0 36 37" fill="none" xmlns="http://www.w3.org/2000/svg">
<g id="Group 57">
<path id="star" d="M19.9399 2.24859L19.9396 2.24794C19.1549 0.585251 16.8436 0.582572 16.0593 2.24859C16.0592 2.24871 16.0592 2.24883 16.0591 2.24895L12.0106 10.8431C12.0106 10.8432 12.0105 10.8433 12.0104 10.8434C11.9776 10.9127 11.927 10.9386 11.8931 10.9439C11.893 10.9439 11.8929 10.9439 11.8929 10.9439L2.83993 12.3221C1.02306 12.5982 0.425253 14.8378 1.63557 16.0742L1.63575 16.0744L8.18764 22.7641C8.18775 22.7643 8.18786 22.7644 8.18797 22.7645C8.23207 22.8098 8.26198 22.888 8.24799 22.9745C8.24797 22.9746 8.24795 22.9747 8.24794 22.9748L6.70102 32.4212L6.70092 32.4218C6.42306 34.125 8.17485 35.6547 9.84657 34.7338C9.84659 34.7338 9.84662 34.7338 9.84664 34.7338L17.9448 30.2736L17.9464 30.2728C17.9655 30.2622 17.9834 30.2583 17.9996 30.2583C18.0158 30.2583 18.0337 30.2622 18.0528 30.2728L18.0544 30.2736L26.1521 34.7335C27.8271 35.6573 29.5758 34.1229 29.2983 32.4218L29.2982 32.4212L27.7512 22.9748C27.7512 22.9747 27.7512 22.9745 27.7512 22.9744C27.7372 22.8877 27.7673 22.8094 27.8115 22.7641L34.3634 16.0744L34.3636 16.0742C35.5739 14.8378 34.9761 12.5982 33.1593 12.3221L24.1063 10.9439C24.1063 10.9439 24.1062 10.9439 24.1061 10.9439C24.0723 10.9386 24.0216 10.9127 23.9887 10.8435C23.9887 10.8433 23.9886 10.8432 23.9886 10.8431L19.9399 2.24859Z" stroke="url(#paint0_linear_318_568)" stroke-width="2" stroke-miterlimit="10" stroke-linecap="round" stroke-linejoin="round"/>
</g>
<defs>
<linearGradient id="paint0_linear_318_568" x1="2" y1="13" x2="34" y2="34" gradientUnits="userSpaceOnUse">
<stop stop-color="#2A5391"/>
<stop offset="1" stop-color="#53BD2C"/>
</linearGradient>
</defs>
</svg>
